{
    "asset" : {
        "generator" : "Khronos glTF Blender I/O v1.7.33",
        "version" : "2.0"
    },
    "scene" : 0,
    "scenes" : [
        {
            "name" : "Scene",
            "nodes" : [
                0,
                1,
                2,
                3,
                4,
                5
            ]
        }
    ],
    "nodes" : [
        {
            "name" : "silencer_socket",
            "rotation" : [
                0,
                -0.7071068286895752,
                0,
                0.7071068286895752
            ],
            "scale" : [
                4.051557667139605e-08,
                0.3336465656757355,
                0.3693922460079193
            ],
            "translation" : [
                0.4721963107585907,
                0.04416403919458389,
                -0.0003800974227488041
            ]
        },
        {
            "name" : "optics_socket",
            "rotation" : [
                0,
                -0.7071068286895752,
                0,
                0.7071068286895752
            ],
            "translation" : [
                0.13270658254623413,
                0.09149327874183655,
                0
            ]
        },
        {
            "name" : "muzzle",
            "rotation" : [
                0,
                -0.7071068286895752,
                0,
                0.7071068286895752
            ],
            "scale" : [
                4.051557667139605e-08,
                0.3336465656757355,
                0.3693922460079193
            ],
            "translation" : [
                0.491677463054657,
                0.04403837025165558,
                -0.0003800974227488041
            ]
        },
        {
            "name" : "IKHandL",
            "rotation" : [
                0.7933533787727356,
                -0.6087614297866821,
                0,
                5.989650020410409e-08
            ],
            "scale" : [
                0.336159884929657,
                0.36710649728775024,
                6.077336678345091e-08
            ],
            "translation" : [
                0.30155467987060547,
                0.019901081919670105,
                0.04593101143836975
            ]
        },
        {
            "name" : "collision.box",
            "scale" : [
                0.3596959412097931,
                0.11338360607624054,
                0
            ],
            "translation" : [
                0.13642093539237976,
                -0.007002418860793114,
                -0.0003800978884100914
            ]
        },
        {
            "mesh" : 0,
            "name" : "HK"
        }
    ],
    "meshes" : [
        {
            "name" : "Cube.001",
            "primitives" : [
                {
                    "attributes" : {
                        "POSITION" : 0,
                        "NORMAL" : 1,
                        "TEXCOORD_0" : 2
                    },
                    "indices" : 3
                }
            ]
        }
    ],
    "accessors" : [
        {
            "bufferView" : 0,
            "componentType" : 5126,
            "count" : 550,
            "max" : [
                0.4925127625465393,
                0.09159231930971146,
                0.03405999764800072
            ],
            "min" : [
                -0.21972088515758514,
                -0.10579103976488113,
                -0.027922209352254868
            ],
            "type" : "VEC3"
        },
        {
            "bufferView" : 1,
            "componentType" : 5126,
            "count" : 550,
            "type" : "VEC3"
        },
        {
            "bufferView" : 2,
            "componentType" : 5126,
            "count" : 550,
            "type" : "VEC2"
        },
        {
            "bufferView" : 3,
            "componentType" : 5123,
            "count" : 1671,
            "type" : "SCALAR"
        }
    ],
    "bufferViews" : [
        {
            "buffer" : 0,
            "byteLength" : 6600,
            "byteOffset" : 0
        },
        {
            "buffer" : 0,
            "byteLength" : 6600,
            "byteOffset" : 6600
        },
        {
            "buffer" : 0,
            "byteLength" : 4400,
            "byteOffset" : 13200
        },
        {
            "buffer" : 0,
            "byteLength" : 3342,
            "byteOffset" : 17600
        }
    ],
    "buffers" : [
        {
            "byteLength" : 20944,
            "uri" : "data:application/octet-stream;base64,"
        }
    ]
}
