{
    "asset" : {
        "generator" : "Khronos glTF Blender I/O v1.7.33",
        "version" : "2.0"
    },
    "scene" : 0,
    "scenes" : [
        {
            "name" : "Scene",
            "nodes" : [
                0,
                1,
                2,
                3,
                4,
                5,
                6
            ]
        }
    ],
    "nodes" : [
        {
            "name" : "collision.box",
            "scale" : [
                1.006635069847107,
                0.30306094884872437,
                1
            ],
            "translation" : [
                0.06344471126794815,
                0.011229313910007477,
                0.0008170832879841328
            ]
        },
        {
            "mesh" : 0,
            "name" : "KSG Complete"
        },
        {
            "name" : "muzzle",
            "rotation" : [
                0,
                -0.7071068286895752,
                0,
                0.7071067094802856
            ],
            "translation" : [
                0.4136325418949127,
                0.07881015539169312,
                0.0002608106005936861
            ]
        },
        {
            "name" : "optics_socket",
            "translation" : [
                0.17287573218345642,
                0.10818438977003098,
                -0.0005473596975207329
            ]
        },
        {
            "name" : "silencer_socket",
            "translation" : [
                0.4044288992881775,
                0.07891629636287689,
                0.0002608106005936861
            ]
        },
        {
            "name" : "underbarrel",
            "rotation" : [
                0,
                -0.7071068286895752,
                0,
                0.7071067094802856
            ],
            "translation" : [
                0.2960703372955322,
                0.031269803643226624,
                0.0007977837231010199
            ]
        },
        {
            "name" : "IKHandL",
            "rotation" : [
                0.9063078165054321,
                -0.4226182997226715,
                0,
                -2.602952342556364e-08
            ],
            "translation" : [
                0.2929927706718445,
                0.03183753043413162,
                0.027149440720677376
            ]
        }
    ],
    "meshes" : [
        {
            "name" : "Cylinder.005",
            "primitives" : [
                {
                    "attributes" : {
                        "POSITION" : 0,
                        "NORMAL" : 1,
                        "TEXCOORD_0" : 2
                    },
                    "indices" : 3
                }
            ]
        }
    ],
    "accessors" : [
        {
            "bufferView" : 0,
            "componentType" : 5126,
            "count" : 996,
            "max" : [
                0.4077119529247284,
                0.10849259793758392,
                0.029254505410790443
            ],
            "min" : [
                -0.28502652049064636,
                -0.09559977799654007,
                -0.028573183342814445
            ],
            "type" : "VEC3"
        },
        {
            "bufferView" : 1,
            "componentType" : 5126,
            "count" : 996,
            "type" : "VEC3"
        },
        {
            "bufferView" : 2,
            "componentType" : 5126,
            "count" : 996,
            "type" : "VEC2"
        },
        {
            "bufferView" : 3,
            "componentType" : 5123,
            "count" : 1626,
            "type" : "SCALAR"
        }
    ],
    "bufferViews" : [
        {
            "buffer" : 0,
            "byteLength" : 11952,
            "byteOffset" : 0
        },
        {
            "buffer" : 0,
            "byteLength" : 11952,
            "byteOffset" : 11952
        },
        {
            "buffer" : 0,
            "byteLength" : 7968,
            "byteOffset" : 23904
        },
        {
            "buffer" : 0,
            "byteLength" : 3252,
            "byteOffset" : 31872
        }
    ],
    "buffers" : [
        {
            "byteLength" : 35124,
            "uri" : "data:application/octet-stream;base64,"
        }
    ]
}
